<svg width="16" height="16" viewBox="0 0 16 16" fill="none" xmlns="http://www.w3.org/2000/svg">
<path d="M14.9468 2.23927C14.9181 2.03298 14.7697 1.86329 14.569 1.80751L8.13833 0.0191373C8.04665 -0.00637908 7.94982 -0.00637908 7.85807 0.0191373L1.42739 1.80751C1.22675 1.86329 1.07832 2.03291 1.0496 2.23927C1.0123 2.50747 0.161407 8.84444 2.34389 11.9969C4.5238 15.1456 7.73962 15.9525 7.87543 15.9853C7.9158 15.9951 7.95693 15.9999 7.9982 15.9999C8.03947 15.9999 8.08061 15.995 8.12097 15.9853C8.25685 15.9525 11.4727 15.1456 13.6525 11.9969C15.835 8.84451 14.9841 2.50754 14.9468 2.23927ZM12.1452 5.93886L7.75879 10.3252C7.65673 10.4273 7.52287 10.4784 7.38908 10.4784C7.2553 10.4784 7.12144 10.4274 7.01938 10.3252L4.30732 7.61318C4.20923 7.51515 4.15416 7.38213 4.15416 7.24347C4.15416 7.1048 4.2093 6.97178 4.30732 6.87376L4.84582 6.33527C5.05002 6.13114 5.3811 6.13107 5.58523 6.33527L7.38908 8.13912L10.8673 4.66088C10.9653 4.56279 11.0983 4.50771 11.237 4.50771C11.3756 4.50771 11.5086 4.56279 11.6067 4.66088L12.1452 5.19937C12.3494 5.40357 12.3494 5.73466 12.1452 5.93886Z" fill="#565656"/>
</svg>
