<svg width="16" height="16" viewBox="0 0 16 16" fill="none" xmlns="http://www.w3.org/2000/svg">
<path d="M9.10827 6.28445C8.92553 6.46658 8.92553 6.76455 9.10876 6.94729C9.29137 7.12942 9.58886 7.12942 9.7716 6.94729C9.95421 6.76418 9.95421 6.46658 9.77111 6.28396C9.58935 6.1022 9.29211 6.10061 9.10827 6.28445Z" fill="#565656"/>
<path d="M5.97192 16L13.2187 8.8008V6.80386L13.0781 6.9446C12.3548 7.68044 11.2953 7.92824 10.3578 7.6758C9.7849 8.16677 8.963 8.12783 8.4453 7.61013C7.9016 7.05703 7.9016 6.16641 8.4453 5.6227C8.9984 5.0696 9.88903 5.0696 10.4327 5.6227C10.761 5.94143 10.8922 6.38198 10.8265 6.81326C11.4078 6.89773 11.9984 6.71023 12.4203 6.28835L13.2187 5.48208V2.84378H10.5734L11.9515 1.46011C12.6546 0.74771 13.8921 0.74771 14.5952 1.46011C15.3249 2.16958 15.1466 3.57095 14.4078 4.29141L13.2187 5.48208V6.80386L15.0735 4.95706C16.1874 3.84304 16.3536 1.86807 15.261 0.794585C14.2015 -0.264862 12.3453 -0.264862 11.2859 0.794585L9.25158 2.84378H7.25475L0 10.0281L5.97192 16ZM5.46411 7.28201L8.77343 10.5914L8.11718 11.2571L4.79846 7.93825L5.46411 7.28201ZM7.45153 11.9226L6.78588 12.5789L3.47656 9.26955L4.13281 8.6039L7.45153 11.9226Z" fill="#565656"/>
</svg>
