<svg width="26" height="26" viewBox="0 0 26 26" fill="none" xmlns="http://www.w3.org/2000/svg">
<path d="M1.68547 1.68629C2.076 1.29577 2.70916 1.29577 3.09968 1.68629L24.3129 22.8995C24.7034 23.29 24.7034 23.9232 24.3129 24.3137C23.9224 24.7042 23.2892 24.7042 22.8987 24.3137L1.68547 3.10051C1.29495 2.70998 1.29495 2.07682 1.68547 1.68629Z" fill="#3235E7"/>
<path d="M24.3124 1.68633C24.7029 2.07685 24.7029 2.71001 24.3124 3.10054L3.09922 24.3137C2.7087 24.7043 2.07553 24.7043 1.68501 24.3137C1.29448 23.9232 1.29448 23.2901 1.68501 22.8995L22.8982 1.68633C23.2887 1.2958 23.9219 1.2958 24.3124 1.68633Z" fill="#3235E7"/>
</svg>
