<svg width="281" height="85" viewBox="0 0 281 85" fill="none" xmlns="http://www.w3.org/2000/svg">
<g clip-path="url(#clip0_7407_11100)">
<path d="M42.4268 84.8302C65.852 84.8302 84.8419 65.8403 84.8419 42.4151C84.8419 18.9899 65.852 0 42.4268 0C19.0016 0 0.0117188 18.9899 0.0117188 42.4151C0.0117188 65.8403 19.0016 84.8302 42.4268 84.8302Z" fill="url(#paint0_linear_7407_11100)"/>
<path d="M62.389 34.6534C61.563 34.1165 60.978 33.2534 60.8388 32.2781C59.7999 24.9992 53.2059 19.2988 45.2535 19.2988C39.8679 19.2988 34.9437 21.9622 32.0753 26.1551C31.5221 26.9637 30.6138 27.4603 29.6493 27.6321C27.0175 28.1011 24.8665 29.951 24.1039 32.3597C23.8162 33.2687 23.2592 34.1023 22.4563 34.6166C19.7476 36.3515 17.9922 39.2518 17.9922 42.4162C17.9922 47.6439 22.5779 51.9883 28.096 51.9883H29.8168C31.2354 51.9883 32.3854 53.1383 32.3854 54.5569V58.2699C32.3854 59.2892 31.5591 60.1155 30.5397 60.1155C29.7713 60.1155 29.1121 59.6108 28.6315 59.0111C27.8515 58.0378 26.6245 57.4064 25.2364 57.4064C22.8713 57.4064 20.9471 59.2294 20.9471 61.4701C20.9471 63.7107 22.8713 65.5337 25.2364 65.5337C26.4392 65.5337 27.5211 65.0596 28.296 64.2997C29.0596 63.5509 29.9706 62.8246 31.04 62.8246H32.6764C34.095 62.8246 35.245 61.6746 35.245 60.256V54.5569C35.245 53.1383 36.395 51.9883 37.8136 51.9883H38.3955C39.8141 51.9883 40.9641 53.1383 40.9641 54.5569V55.8126C40.9641 56.9143 40.1978 57.8394 39.3894 58.5878C38.5976 59.3207 38.1045 60.339 38.1045 61.4701C38.1045 63.7107 40.0288 65.5337 42.3939 65.5337C44.759 65.5337 46.6833 63.7107 46.6833 61.4701C46.6833 60.339 46.1902 59.3207 45.3984 58.5878C44.59 57.8394 43.8237 56.9143 43.8237 55.8126V54.5569C43.8237 53.1383 44.9737 51.9883 46.3923 51.9883H46.9742C48.3928 51.9883 49.5428 53.1383 49.5428 54.5569V60.256C49.5428 61.6746 50.6928 62.8246 52.1114 62.8246H53.7478C54.8172 62.8246 55.7282 63.5509 56.4918 64.2997C57.2667 65.0596 58.3486 65.5337 59.5514 65.5337C61.9165 65.5337 63.8407 63.7107 63.8407 61.4701C63.8407 59.2294 62.1708 57.4064 59.5514 57.4064C58.1633 57.4064 56.9363 58.0378 56.1563 59.0111C55.6757 59.6108 55.0165 60.1155 54.2481 60.1155C53.2287 60.1155 52.4024 59.2892 52.4024 58.2699V54.5569C52.4024 53.1383 53.5524 51.9883 54.971 51.9883H56.6918C62.2099 51.9883 66.7956 47.6439 66.7956 42.4162C66.7956 39.2746 65.065 36.3924 62.389 34.6534ZM44.7807 46.4183C44.1307 46.7956 43.238 46.5094 42.4877 46.4661C42.4251 46.4625 42.3623 46.4625 42.2997 46.4661C41.5494 46.5094 40.6568 46.7956 40.0069 46.4182C39.3117 46.0147 39.0934 45.0837 39.7549 44.6272C41.2728 43.5797 43.5148 43.5796 45.0327 44.627C45.6944 45.0836 45.4759 46.0147 44.7807 46.4183ZM49.658 43.5923C49.0078 43.9686 48.1863 43.7555 47.6656 43.2139C46.3241 41.8185 44.4339 41.0141 42.3939 41.0141C40.3539 41.0141 38.4637 41.8185 37.1222 43.2139C36.6015 43.7555 35.78 43.9686 35.1298 43.5922C34.4334 43.1891 34.2095 42.277 34.7431 41.6746C36.6317 39.5428 39.3974 38.305 42.3939 38.305C45.3906 38.305 48.156 39.5427 50.0448 41.6744C50.5786 42.2769 50.3546 43.1891 49.658 43.5923ZM54.5371 40.7652C53.8868 41.1416 53.0617 40.9349 52.5891 40.3508C50.1625 37.3515 46.4437 35.5959 42.3939 35.5959C38.3441 35.5959 34.6253 37.3515 32.1987 40.3508C31.7261 40.9349 30.901 41.1416 30.2508 40.7652C29.5544 40.3621 29.3323 39.4539 29.8318 38.8232C32.7953 35.0811 37.3875 32.8869 42.3939 32.8869C47.4003 32.8869 51.9925 35.0811 54.956 38.8232C55.4555 39.4539 55.2334 40.3621 54.5371 40.7652Z" fill="black"/>
<path d="M62.389 34.6534C61.563 34.1165 60.978 33.2534 60.8388 32.2781C59.7999 24.9992 53.2059 19.2988 45.2535 19.2988C39.8679 19.2988 34.9437 21.9622 32.0753 26.1551C31.5221 26.9637 30.6138 27.4603 29.6493 27.6321C27.0175 28.1011 24.8665 29.951 24.1039 32.3597C23.8162 33.2687 23.2592 34.1023 22.4563 34.6166C19.7476 36.3515 17.9922 39.2518 17.9922 42.4162C17.9922 47.6439 22.5779 51.9883 28.096 51.9883H29.8168C31.2354 51.9883 32.3854 53.1383 32.3854 54.5569V58.2699C32.3854 59.2892 31.5591 60.1155 30.5397 60.1155C29.7713 60.1155 29.1121 59.6108 28.6315 59.0111C27.8515 58.0378 26.6245 57.4064 25.2364 57.4064C22.8713 57.4064 20.9471 59.2294 20.9471 61.4701C20.9471 63.7107 22.8713 65.5337 25.2364 65.5337C26.4392 65.5337 27.5211 65.0596 28.296 64.2997C29.0596 63.5509 29.9706 62.8246 31.04 62.8246H32.6764C34.095 62.8246 35.245 61.6746 35.245 60.256V54.5569C35.245 53.1383 36.395 51.9883 37.8136 51.9883H38.3955C39.8141 51.9883 40.9641 53.1383 40.9641 54.5569V55.8126C40.9641 56.9143 40.1978 57.8394 39.3894 58.5878C38.5976 59.3207 38.1045 60.339 38.1045 61.4701C38.1045 63.7107 40.0288 65.5337 42.3939 65.5337C44.759 65.5337 46.6833 63.7107 46.6833 61.4701C46.6833 60.339 46.1902 59.3207 45.3984 58.5878C44.59 57.8394 43.8237 56.9143 43.8237 55.8126V54.5569C43.8237 53.1383 44.9737 51.9883 46.3923 51.9883H46.9742C48.3928 51.9883 49.5428 53.1383 49.5428 54.5569V60.256C49.5428 61.6746 50.6928 62.8246 52.1114 62.8246H53.7478C54.8172 62.8246 55.7282 63.5509 56.4918 64.2997C57.2667 65.0596 58.3486 65.5337 59.5514 65.5337C61.9165 65.5337 63.8407 63.7107 63.8407 61.4701C63.8407 59.2294 62.1708 57.4064 59.5514 57.4064C58.1633 57.4064 56.9363 58.0378 56.1563 59.0111C55.6757 59.6108 55.0165 60.1155 54.2481 60.1155C53.2287 60.1155 52.4024 59.2892 52.4024 58.2699V54.5569C52.4024 53.1383 53.5524 51.9883 54.971 51.9883H56.6918C62.2099 51.9883 66.7956 47.6439 66.7956 42.4162C66.7956 39.2746 65.065 36.3924 62.389 34.6534ZM44.7807 46.4183C44.1307 46.7956 43.238 46.5094 42.4877 46.4661C42.4251 46.4625 42.3623 46.4625 42.2997 46.4661C41.5494 46.5094 40.6568 46.7956 40.0069 46.4182C39.3117 46.0147 39.0934 45.0837 39.7549 44.6272C41.2728 43.5797 43.5148 43.5796 45.0327 44.627C45.6944 45.0836 45.4759 46.0147 44.7807 46.4183ZM49.658 43.5923C49.0078 43.9686 48.1863 43.7555 47.6656 43.2139C46.3241 41.8185 44.4339 41.0141 42.3939 41.0141C40.3539 41.0141 38.4637 41.8185 37.1222 43.2139C36.6015 43.7555 35.78 43.9686 35.1298 43.5922C34.4334 43.1891 34.2095 42.277 34.7431 41.6746C36.6317 39.5428 39.3974 38.305 42.3939 38.305C45.3906 38.305 48.156 39.5427 50.0448 41.6744C50.5786 42.2769 50.3546 43.1891 49.658 43.5923ZM54.5371 40.7652C53.8868 41.1416 53.0617 40.9349 52.5891 40.3508C50.1625 37.3515 46.4437 35.5959 42.3939 35.5959C38.3441 35.5959 34.6253 37.3515 32.1987 40.3508C31.7261 40.9349 30.901 41.1416 30.2508 40.7652C29.5544 40.3621 29.3323 39.4539 29.8318 38.8232C32.7953 35.0811 37.3875 32.8869 42.3939 32.8869C47.4003 32.8869 51.9925 35.0811 54.956 38.8232C55.4555 39.4539 55.2334 40.3621 54.5371 40.7652Z" fill="url(#paint1_linear_7407_11100)"/>
</g>
<path d="M106.241 45.5714H101.668C100.747 45.5714 100 44.8248 100 43.9038V28.8105C100 27.8895 100.747 27.1429 101.668 27.1429H104.574C105.495 27.1429 106.241 27.8895 106.241 28.8105V45.5714ZM112.483 45.5714V28.8105C112.483 27.8895 113.229 27.1429 114.15 27.1429H117.057C117.978 27.1429 118.724 27.8895 118.724 28.8105V43.9038C118.724 44.8248 117.978 45.5714 117.057 45.5714H112.483ZM112.483 56.1895C112.483 57.1105 111.736 57.8571 110.815 57.8571H107.909C106.988 57.8571 106.241 57.1105 106.241 56.1895V45.5714H112.483V56.1895Z" fill="url(#paint2_linear_7407_11100)"/>
<path d="M131.207 56.1895C131.207 57.1105 130.46 57.8571 129.539 57.8571H126.633C125.712 57.8571 124.966 57.1105 124.966 56.1895V34.9533C124.966 34.0323 125.712 33.2857 126.633 33.2857H148.263C149.184 33.2857 149.931 34.0323 149.931 34.9533V39.4286H145.357C144.436 39.4286 143.69 40.1752 143.69 41.0962V56.1895C143.69 57.1105 142.943 57.8571 142.022 57.8571H139.116C138.195 57.8571 137.448 57.1105 137.448 56.1895V41.0962C137.448 40.1752 136.702 39.4286 135.781 39.4286H132.875C131.954 39.4286 131.207 40.1752 131.207 41.0962V56.1895ZM156.172 56.1895C156.172 57.1105 155.426 57.8571 154.505 57.8571H151.599C150.678 57.8571 149.931 57.1105 149.931 56.1895V39.4286H154.505C155.426 39.4286 156.172 40.1752 156.172 41.0962V56.1895Z" fill="url(#paint3_linear_7407_11100)"/>
<path d="M168.655 56.1895C168.655 57.1105 167.909 57.8571 166.988 57.8571H164.081C163.16 57.8571 162.414 57.1105 162.414 56.1895V28.8105C162.414 27.8895 163.16 27.1429 164.081 27.1429H166.988C167.909 27.1429 168.655 27.8895 168.655 28.8105V56.1895Z" fill="url(#paint4_linear_7407_11100)"/>
<path d="M176.564 27.1429C175.643 27.1429 174.897 26.3962 174.897 25.4752V22.6676C174.897 21.7466 175.643 21 176.564 21H179.47C180.391 21 181.138 21.7466 181.138 22.6676V25.4752C181.138 26.3962 180.391 27.1429 179.47 27.1429H176.564ZM181.138 56.1895C181.138 57.1105 180.391 57.8571 179.47 57.8571H176.564C175.643 57.8571 174.897 57.1105 174.897 56.1895V34.9533C174.897 34.0323 175.643 33.2857 176.564 33.2857H179.47C180.391 33.2857 181.138 34.0323 181.138 34.9533V56.1895Z" fill="url(#paint5_linear_7407_11100)"/>
<path d="M193.621 56.1895C193.621 57.1105 192.874 57.8571 191.953 57.8571H189.047C188.126 57.8571 187.379 57.1105 187.379 56.1895V34.9533C187.379 34.0323 188.126 33.2857 189.047 33.2857H198.194C199.115 33.2857 199.862 34.0323 199.862 34.9533V39.4286H195.288C194.367 39.4286 193.621 40.1752 193.621 41.0962V56.1895ZM206.103 56.1895C206.103 57.1105 205.357 57.8571 204.436 57.8571H201.53C200.609 57.8571 199.862 57.1105 199.862 56.1895V39.4286H204.436C205.357 39.4286 206.103 40.1752 206.103 41.0962V56.1895Z" fill="url(#paint6_linear_7407_11100)"/>
<path d="M218.586 51.7143H214.012C213.091 51.7143 212.345 50.9677 212.345 50.0467V41.0962C212.345 40.1752 213.091 39.4286 214.012 39.4286H216.919C217.84 39.4286 218.586 38.682 218.586 37.761V34.9533C218.586 34.0323 219.333 33.2857 220.254 33.2857H223.16C224.081 33.2857 224.828 34.0323 224.828 34.9533V37.761C224.828 38.682 225.574 39.4286 226.495 39.4286H229.401C230.322 39.4286 231.069 40.1752 231.069 41.0962V43.9038C231.069 44.8248 230.322 45.5714 229.401 45.5714H220.254C219.333 45.5714 218.586 46.318 218.586 47.239V51.7143ZM220.254 57.8571C219.333 57.8571 218.586 57.1105 218.586 56.1895V51.7143H229.401C230.322 51.7143 231.069 52.4609 231.069 53.3819V56.1895C231.069 57.1105 230.322 57.8571 229.401 57.8571H220.254Z" fill="url(#paint7_linear_7407_11100)"/>
<path d="M238.978 57.8571C238.057 57.8571 237.31 57.1105 237.31 56.1895V53.3819C237.31 52.4609 238.057 51.7143 238.978 51.7143H241.884C242.805 51.7143 243.552 52.4609 243.552 53.3819V56.1895C243.552 57.1105 242.805 57.8571 241.884 57.8571H238.978Z" fill="url(#paint8_linear_7407_11100)"/>
<path d="M262.276 51.7143V56.1895C262.276 57.1105 261.529 57.8571 260.608 57.8571H257.702C256.781 57.8571 256.034 58.6038 256.034 59.5248V62.3324C256.034 63.2534 255.288 64 254.367 64H251.461C250.54 64 249.793 63.2534 249.793 62.3324V34.9533C249.793 34.0323 250.54 33.2857 251.461 33.2857H260.608C261.529 33.2857 262.276 34.0323 262.276 34.9533V39.4286H257.702C256.781 39.4286 256.034 40.1752 256.034 41.0962V50.0467C256.034 50.9677 256.781 51.7143 257.702 51.7143H262.276ZM268.517 50.0467C268.517 50.9677 267.771 51.7143 266.85 51.7143H262.276V39.4286H266.85C267.771 39.4286 268.517 40.1752 268.517 41.0962V50.0467Z" fill="url(#paint9_linear_7407_11100)"/>
<path d="M281 56.1895C281 57.1105 280.253 57.8571 279.332 57.8571H276.426C275.505 57.8571 274.759 57.1105 274.759 56.1895V28.8105C274.759 27.8895 275.505 27.1429 276.426 27.1429H279.332C280.253 27.1429 281 27.8895 281 28.8105V56.1895Z" fill="url(#paint10_linear_7407_11100)"/>
<defs>
<linearGradient id="paint0_linear_7407_11100" x1="42.4268" y1="84.8302" x2="42.4268" y2="0" gradientUnits="userSpaceOnUse">
<stop stop-color="#ADDCFF"/>
<stop offset="0.5028" stop-color="#EAF6FF"/>
<stop offset="1" stop-color="#EAF6FF"/>
</linearGradient>
<linearGradient id="paint1_linear_7407_11100" x1="42.3939" y1="65.5337" x2="42.3939" y2="19.2988" gradientUnits="userSpaceOnUse">
<stop stop-color="#00C0FF"/>
<stop offset="1" stop-color="#3235E7"/>
</linearGradient>
<linearGradient id="paint2_linear_7407_11100" x1="194.073" y1="69.4306" x2="194.073" y2="14.8698" gradientUnits="userSpaceOnUse">
<stop stop-color="#00C0FF"/>
<stop offset="1" stop-color="#3235E7"/>
</linearGradient>
<linearGradient id="paint3_linear_7407_11100" x1="194.073" y1="69.4306" x2="194.073" y2="14.8698" gradientUnits="userSpaceOnUse">
<stop stop-color="#00C0FF"/>
<stop offset="1" stop-color="#3235E7"/>
</linearGradient>
<linearGradient id="paint4_linear_7407_11100" x1="194.073" y1="69.4306" x2="194.073" y2="14.8698" gradientUnits="userSpaceOnUse">
<stop stop-color="#00C0FF"/>
<stop offset="1" stop-color="#3235E7"/>
</linearGradient>
<linearGradient id="paint5_linear_7407_11100" x1="194.073" y1="69.4306" x2="194.073" y2="14.8698" gradientUnits="userSpaceOnUse">
<stop stop-color="#00C0FF"/>
<stop offset="1" stop-color="#3235E7"/>
</linearGradient>
<linearGradient id="paint6_linear_7407_11100" x1="194.073" y1="69.4306" x2="194.073" y2="14.8698" gradientUnits="userSpaceOnUse">
<stop stop-color="#00C0FF"/>
<stop offset="1" stop-color="#3235E7"/>
</linearGradient>
<linearGradient id="paint7_linear_7407_11100" x1="194.073" y1="69.4306" x2="194.073" y2="14.8698" gradientUnits="userSpaceOnUse">
<stop stop-color="#00C0FF"/>
<stop offset="1" stop-color="#3235E7"/>
</linearGradient>
<linearGradient id="paint8_linear_7407_11100" x1="194.073" y1="69.4306" x2="194.073" y2="14.8698" gradientUnits="userSpaceOnUse">
<stop stop-color="#00C0FF"/>
<stop offset="1" stop-color="#3235E7"/>
</linearGradient>
<linearGradient id="paint9_linear_7407_11100" x1="194.073" y1="69.4306" x2="194.073" y2="14.8698" gradientUnits="userSpaceOnUse">
<stop stop-color="#00C0FF"/>
<stop offset="1" stop-color="#3235E7"/>
</linearGradient>
<linearGradient id="paint10_linear_7407_11100" x1="194.073" y1="69.4306" x2="194.073" y2="14.8698" gradientUnits="userSpaceOnUse">
<stop stop-color="#00C0FF"/>
<stop offset="1" stop-color="#3235E7"/>
</linearGradient>
<clipPath id="clip0_7407_11100">
<rect width="84.8302" height="84.8302" fill="white" transform="translate(0.0117188)"/>
</clipPath>
</defs>
</svg>
