<svg width="16" height="16" viewBox="0 0 16 16" fill="none" xmlns="http://www.w3.org/2000/svg">
<path d="M6.17794 7.54688H2.34375C2.08488 7.54688 1.875 7.337 1.875 7.07812C1.875 6.81925 2.08488 6.60938 2.34375 6.60938L8.07159 6.58125C8.24719 5.64806 8.97791 4.90881 9.90625 4.71956V1.45312C9.90625 1.19425 9.69637 0.984375 9.4375 0.984375H0.46875C0.209875 0.984375 0 1.19425 0 1.45312V12.6719C0 12.9307 0.209875 13.1406 0.46875 13.1406H6.09378V10.7483C5.95 10.4393 5.875 10.1003 5.875 9.75281V8.6125C5.875 8.22191 5.98609 7.85687 6.17794 7.54688ZM2.34375 2.85941H7.5625C7.82137 2.85941 8.03125 3.06928 8.03125 3.32816C8.03125 3.58703 7.82137 3.79691 7.5625 3.79691H2.34375C2.08488 3.79691 1.875 3.58703 1.875 3.32816C1.875 3.06928 2.08488 2.85941 2.34375 2.85941ZM2.34375 4.73441H7.5625C7.82137 4.73441 8.03125 4.94428 8.03125 5.20316C8.03125 5.46203 7.82137 5.67191 7.5625 5.67191H2.34375C2.08488 5.67191 1.875 5.46203 1.875 5.20316C1.875 4.94428 2.08488 4.73441 2.34375 4.73441ZM3.46875 9.42191H2.34375C2.08488 9.42191 1.875 9.21203 1.875 8.95316C1.875 8.69428 2.08488 8.48441 2.34375 8.48441H3.46875C3.72762 8.48441 3.9375 8.69428 3.9375 8.95316C3.9375 9.21203 3.72762 9.42191 3.46875 9.42191Z" fill="#565656"/>
<path d="M10.9082 11.7969H11.8457V12.7344H10.9082V11.7969Z" fill="#565656"/>
<path d="M12.7832 12.6606V13.2031C12.7832 13.462 12.5733 13.6719 12.3144 13.6719H10.4394C10.1805 13.6719 9.97066 13.462 9.97066 13.2031V12.6684L7.59456 12.0119C7.39284 11.9562 7.20438 11.8762 7.03128 11.776V13.7344C7.03128 14.4408 7.60606 15.0156 8.31253 15.0156H14.5C15.2065 15.0156 15.7812 14.4408 15.7812 13.7344V11.771C15.6035 11.8737 15.4096 11.9552 15.2017 12.011L12.7832 12.6606Z" fill="#565656"/>
<path d="M9.07203 6.58125H13.7404C13.5312 6.06688 13.0262 5.70312 12.4375 5.70312H10.375C9.78634 5.70312 9.28131 6.06684 9.07203 6.58125Z" fill="#565656"/>
<path d="M14.9062 7.51875H7.90625C7.30316 7.51875 6.8125 8.00941 6.8125 8.6125V9.75284C6.8125 10.3931 7.22713 10.9378 7.84425 11.1083L9.97066 11.6958V11.3281C9.97066 11.0693 10.1805 10.8594 10.4394 10.8594H12.3144C12.5733 10.8594 12.7832 11.0693 12.7832 11.3281V11.6898L14.9585 11.1056C15.5814 10.9383 16 10.3925 16 9.74747V8.6125C16 8.00941 15.5093 7.51875 14.9062 7.51875Z" fill="#565656"/>
</svg>
