<svg width="16" height="16" viewBox="0 0 16 16" fill="none" xmlns="http://www.w3.org/2000/svg">
<path d="M10.3276 8.46875C10.1098 9.53722 9.13175 10.3438 8 10.3438C6.86825 10.3438 5.92147 9.53722 5.70369 8.46875H4.76613C4.99603 10.0547 6.35141 11.2812 8 11.2812C9.64859 11.2812 11.0352 10.0547 11.2651 8.46875H10.3276Z" fill="#565656"/>
<path d="M12.2026 8.46875C11.966 10.5723 10.1658 12.2188 8 12.2188C5.83416 12.2188 4.06528 10.5723 3.82862 8.46875H0V8.9375C0 9.13937 0.129562 9.31881 0.320906 9.38244L2.24959 10.0119C2.33063 10.2417 2.41622 10.4509 2.50778 10.644L1.61787 12.4321C1.52816 12.6124 1.56384 12.8298 1.70622 12.9722L3.02778 14.2938C3.17106 14.4371 3.38803 14.4709 3.56794 14.3821L5.35597 13.4922C5.54916 13.5838 5.75834 13.6694 5.98812 13.7504L6.61756 15.6791C6.68119 15.8704 6.86062 16 7.0625 16H8.96875C9.17062 16 9.35006 15.8704 9.41369 15.6791L10.0431 13.7504C10.2729 13.6694 10.4821 13.5838 10.6753 13.4922L12.4633 14.3821C12.6432 14.4714 12.8607 14.4371 13.0035 14.2938L14.325 12.9722C14.4674 12.8298 14.5031 12.6124 14.4134 12.4321L13.5235 10.644C13.615 10.4508 13.7006 10.2417 13.7817 10.0119L15.6791 9.38244C15.8704 9.31881 16 9.13937 16 8.9375V8.46875H12.2026Z" fill="#565656"/>
<path d="M6.68009 8.46875C6.87425 9.01319 7.38969 9.40625 8 9.40625C8.61031 9.40625 9.157 9.01319 9.35116 8.46875H6.68009Z" fill="#565656"/>
<path d="M8 0C6.96591 0 6.125 0.840906 6.125 1.875C6.125 2.90909 6.96591 3.75 8 3.75C9.03409 3.75 9.90625 2.90909 9.90625 1.875C9.90625 0.840906 9.03409 0 8 0Z" fill="#565656"/>
<path d="M12.7188 0C11.6847 0 10.8438 0.840906 10.8438 1.875C10.8438 2.90909 11.6847 3.75 12.7188 3.75C13.7528 3.75 14.5938 2.90909 14.5938 1.875C14.5938 0.840906 13.7528 0 12.7188 0Z" fill="#565656"/>
<path d="M3.3125 0C2.27841 0 1.4375 0.840906 1.4375 1.875C1.4375 2.90909 2.27841 3.75 3.3125 3.75C4.34659 3.75 5.1875 2.90909 5.1875 1.875C5.1875 0.840906 4.34659 0 3.3125 0Z" fill="#565656"/>
<path d="M14.3177 4.18384C13.863 4.49975 13.3132 4.6875 12.7188 4.6875C12.1268 4.6875 11.5787 4.50175 11.1251 4.18825C10.9195 4.30628 10.7219 4.439 10.543 4.59903C11.4546 5.28047 12.0875 6.34472 12.2214 7.53125H16V7.0625C16 5.83678 15.3162 4.74712 14.3177 4.18384Z" fill="#565656"/>
<path d="M8 4.6875C6.34975 4.6875 4.98012 5.94328 4.75216 7.53125H11.2791C11.0511 5.94328 9.65025 4.6875 8 4.6875Z" fill="#565656"/>
<path d="M4.90616 4.18825C4.45256 4.50175 3.90444 4.6875 3.3125 4.6875C2.71809 4.6875 2.16825 4.49975 1.71359 4.18384C0.715031 4.74712 0 5.83678 0 7.0625V7.53125H3.80988C3.94375 6.34472 4.57666 5.28047 5.48825 4.59903C5.30931 4.439 5.11175 4.30628 4.90616 4.18825Z" fill="#565656"/>
</svg>
