<svg width="16" height="16" viewBox="0 0 16 16" fill="none" xmlns="http://www.w3.org/2000/svg">
<path d="M7.65625 9.04019H16V5.27832H7.65625V9.04019ZM11.2994 6.69051H14.7066V7.62801H11.2994V6.69051ZM9.06844 6.69051H10.0059V7.62801H9.06844V6.69051Z" fill="#565656"/>
<path d="M7.65625 0.579102V4.34098H16V0.579102H7.65625ZM10.0059 2.92879H9.06844V1.99129H10.0059V2.92879ZM14.7066 2.92879H11.2994V1.99129H14.7066V2.92879Z" fill="#565656"/>
<path d="M13.7161 12.1276C13.5686 12.1051 13.4214 12.1419 13.302 12.231L10.5945 14.2485H7.98079C7.58954 14.2476 7.19923 14.0969 6.90142 13.7991L4.64048 11.5382L5.30361 10.8754L7.56454 13.1363C7.93651 13.51 8.58548 13.2417 8.58329 12.7141C8.58329 12.5548 8.52111 12.4048 8.40861 12.2919L5.68861 9.57194H2.33236V12.5263L5.48923 15.421H10.8699L13.9639 13.1204C14.3559 12.8297 14.1994 12.1983 13.7161 12.1276Z" fill="#565656"/>
<path d="M0 8.53809H1.395V13.5625H0V8.53809Z" fill="#565656"/>
</svg>
