<svg width="16" height="16" viewBox="0 0 16 16" fill="none" xmlns="http://www.w3.org/2000/svg">
<path d="M15.5312 15.0625H15.0312V6.71875C15.0312 6.45988 14.8214 6.25 14.5625 6.25H12.6875C12.4286 6.25 12.2188 6.45988 12.2188 6.71875V15.0625H11.2812V9.21875C11.2812 8.95988 11.0714 8.75 10.8125 8.75H8.9375C8.67863 8.75 8.46875 8.95988 8.46875 9.21875V15.0625H7.53125V11.0938C7.53125 10.8349 7.32137 10.625 7.0625 10.625H5.1875C4.92863 10.625 4.71875 10.8349 4.71875 11.0938V15.0625H3.78125V12.3438C3.78125 12.0849 3.57137 11.875 3.3125 11.875H1.4375C1.17862 11.875 0.96875 12.0849 0.96875 12.3438V15.0625H0.46875C0.209875 15.0625 0 15.2724 0 15.5312C0 15.7901 0.209875 16 0.46875 16H15.5312C15.7901 16 16 15.7901 16 15.5312C16 15.2724 15.7901 15.0625 15.5312 15.0625Z" fill="#565656"/>
<path d="M9.25 5.3125H9.68084L9.16444 5.82891C7.48225 7.51106 5.24569 8.4375 2.86675 8.4375H1.125C0.866125 8.4375 0.65625 8.64738 0.65625 8.90625C0.65625 9.16512 0.866125 9.375 1.125 9.375H2.86675C4.166 9.375 5.43344 9.12291 6.63378 8.62566C7.83416 8.12847 8.90862 7.41053 9.82731 6.49181L10.3438 5.97541V6.40625C10.3438 6.66512 10.5536 6.875 10.8125 6.875C11.0714 6.875 11.2812 6.66512 11.2812 6.40625V4.84375C11.2812 4.58488 11.0714 4.375 10.8125 4.375H9.25C8.99113 4.375 8.78125 4.58488 8.78125 4.84375C8.78125 5.10262 8.99113 5.3125 9.25 5.3125Z" fill="#565656"/>
<path d="M3.59375 7.1875C5.57534 7.1875 7.1875 5.57534 7.1875 3.59375C7.1875 1.61216 5.57534 0 3.59375 0C1.61216 0 0 1.61216 0 3.59375C0 5.57534 1.61216 7.1875 3.59375 7.1875ZM2.34375 3.125H3.125V2.34375C3.125 2.08488 3.33488 1.875 3.59375 1.875C3.85262 1.875 4.0625 2.08488 4.0625 2.34375V3.59375C4.0625 3.85262 3.85262 4.0625 3.59375 4.0625H2.34375C2.08488 4.0625 1.875 3.85262 1.875 3.59375C1.875 3.33488 2.08488 3.125 2.34375 3.125Z" fill="#565656"/>
</svg>
